<?xml version="1.0" encoding="UTF-8" standalone="no"?>
<svg
   xmlns:dc="http://purl.org/dc/elements/1.1/"
   xmlns:cc="http://creativecommons.org/ns#"
   xmlns:rdf="http://www.w3.org/1999/02/22-rdf-syntax-ns#"
   xmlns:svg="http://www.w3.org/2000/svg"
   xmlns="http://www.w3.org/2000/svg"
   xmlns:sodipodi="http://sodipodi.sourceforge.net/DTD/sodipodi-0.dtd"
   xmlns:inkscape="http://www.inkscape.org/namespaces/inkscape"
   version="1.1"
   id="svg2"
   xml:space="preserve"
   width="2000"
   height="2000"
   viewBox="0 0 2000 2000"
   sodipodi:docname="Seth Pefley Logo.svg"
   inkscape:version="1.0.1 (3bc2e813f5, 2020-09-07)"><metadata
     id="metadata8"><rdf:RDF><cc:Work
         rdf:about=""><dc:format>image/svg+xml</dc:format><dc:type
           rdf:resource="http://purl.org/dc/dcmitype/StillImage" /><dc:title></dc:title></cc:Work></rdf:RDF></metadata><defs
     id="defs6"><clipPath
       clipPathUnits="userSpaceOnUse"
       id="clipPath20"><path
         d="M 0,1500 H 1500 V 0 H 0 Z"
         id="path18" /></clipPath><clipPath
       clipPathUnits="userSpaceOnUse"
       id="clipPath56"><path
         d="M 0,1500 H 1500 V 0 H 0 Z"
         id="path54" /></clipPath></defs><sodipodi:namedview
     pagecolor="#ffffff"
     bordercolor="#666666"
     borderopacity="1"
     objecttolerance="10"
     gridtolerance="10"
     guidetolerance="10"
     inkscape:pageopacity="0"
     inkscape:pageshadow="2"
     inkscape:window-width="1920"
     inkscape:window-height="1001"
     id="namedview4"
     showgrid="false"
     inkscape:zoom="0.25986174"
     inkscape:cx="642.9523"
     inkscape:cy="1062.2536"
     inkscape:window-x="-9"
     inkscape:window-y="-9"
     inkscape:window-maximized="1"
     inkscape:current-layer="g10" /><g
     id="g10"
     inkscape:groupmode="layer"
     inkscape:label="Seth Pefley Logo"
     transform="matrix(1.3333333,0,0,-1.3333333,0,2000)"><path
       d="M 0,0 H 1500 V 1500 H 0 Z"
       style="fill:#ffffff;fill-opacity:1;fill-rule:nonzero;stroke:none"
       id="path12"
       inkscape:export-filename="C:\Users\sapef\Dropbox\My PC (DESKTOP-6QMTSRG)\Documents\portfolio\media\logo.png"
       inkscape:export-xdpi="96"
       inkscape:export-ydpi="96" /><g
       id="g14"><g
         id="g16"
         clip-path="url(#clipPath20)"
         inkscape:export-filename="C:\Users\sapef\Dropbox\My PC (DESKTOP-6QMTSRG)\Documents\portfolio\media\logo-no-name.png"
         inkscape:export-xdpi="96"
         inkscape:export-ydpi="96"><g
           id="g22"
           transform="translate(797.1182,890.769)" /><g
           id="g26"
           transform="translate(690.6792,909.5864)" /><g
           id="g30"
           transform="translate(797.1182,890.769)"><path
             d="m 0,0 h -204.458 c 10.978,75.331 76.3,133.738 154.602,133.738 v 45.065 c -119.727,0 -213.496,-104.989 -200.092,-223.928 H 0 C 6.611,-30.75 6.611,-14.375 0,0"
             style="fill:#1a220b;fill-opacity:1;fill-rule:nonzero;stroke:none"
             id="path32" /></g><g
           id="g34"
           transform="translate(947.3545,890.769)"><path
             d="m 0,0 h -79.758 c 2.851,-14.86 2.851,-30.205 0,-45.125 h 34.329 c -10.91,-74.454 -74.85,-132.31 -151.937,-133.646 v -45.12 C -78.947,-222.309 13.302,-118.033 0,0"
             style="fill:#1a220b;fill-opacity:1;fill-rule:nonzero;stroke:none"
             id="path36" /></g><g
           id="g38"
           transform="translate(636.0864,666.8408)"><path
             d="m 0,0 h 45.125 v 90.19 h 66.051 c 60.955,0 111.175,50.22 111.175,111.176 0,60.955 -50.22,111.176 -111.175,111.176 -49.189,0 -91.404,-32.692 -105.839,-77.333 h 49.25 c 11.645,19.228 32.813,32.268 56.589,32.268 36.088,0 66.111,-30.023 66.111,-66.111 0,-36.089 -30.023,-66.111 -66.111,-66.111 H 45.125 v 32.266 H 0 Z"
             style="fill:#f39f57;fill-opacity:1;fill-rule:evenodd;stroke:none"
             id="path40" /></g></g></g><text
       transform="matrix(1,0,0,-1,276.4424,443.7656)"
       style="font-variant:normal;font-weight:500;font-stretch:normal;font-size:120px;font-family:'Metropolis Medium';-inkscape-font-specification:Metropolis-Medium;writing-mode:lr-tb;fill:#1a220b;fill-opacity:1;fill-rule:nonzero;stroke:none"
       id="text44"
       inkscape:export-filename="C:\Users\sapef\Dropbox\My PC (DESKTOP-6QMTSRG)\Documents\portfolio\media\logo-name-only.png"
       inkscape:export-xdpi="96"
       inkscape:export-ydpi="96"><tspan
         x="0 92.279999 186 279.84"
         y="0"
         sodipodi:role="line"
         id="tspan42">SETH</tspan></text><text
       transform="matrix(1,0,0,-1,675.2024,444.1256)"
       style="font-variant:normal;font-weight:300;font-stretch:normal;font-size:120px;font-family:'Metropolis Light';-inkscape-font-specification:Metropolis-Light;writing-mode:lr-tb;fill:#f39f57;fill-opacity:1;fill-rule:nonzero;stroke:none"
       id="text48"
       inkscape:export-filename="C:\Users\sapef\Dropbox\My PC (DESKTOP-6QMTSRG)\Documents\portfolio\media\logo-name-only.png"
       inkscape:export-xdpi="96"
       inkscape:export-ydpi="96"><tspan
         x="0 94.919998 186.36 276.48001 360.12 451.56"
         y="0"
         sodipodi:role="line"
         id="tspan46">PEFLEY</tspan></text></g></svg>
